<?xml version="1.0" encoding="utf-8"?>
<svg height="480pt" viewBox="-221.818 -351.445 821.818 851.445" width="480pt" xmlns="http://www.w3.org/2000/svg">
  <path d="M 189.093 -291.089 C 96.387 -291.089 20.96 -215.663 20.96 -122.956 L 20.96 -82.935 L 70.213 27.781 L 307.976 27.781 L 357.226 -82.935 L 357.226 -122.956 C 357.226 -215.663 281.799 -291.089 189.093 -291.089 Z M 189.093 -262.337 C 265.067 -262.337 327.046 -201.24 328.446 -125.592 C 321.391 -129.013 313.523 -130.901 305.319 -130.901 C 290.291 -130.901 276.394 -124.548 266.58 -114.091 C 256.766 -124.548 242.86 -130.901 227.832 -130.901 C 212.814 -130.901 198.907 -124.548 189.093 -114.091 C 179.279 -124.548 165.372 -130.901 150.354 -130.901 C 135.326 -130.901 121.419 -124.548 111.606 -114.091 C 101.792 -124.548 87.895 -130.901 72.867 -130.901 C 64.663 -130.901 56.795 -129.013 49.74 -125.592 C 51.14 -201.24 113.119 -262.337 189.093 -262.337 Z M 204.817 8.281 L 203.468 -80.996 L 204.331 -84.179 C 207.197 -94.76 216.868 -102.15 227.832 -102.15 C 238.806 -102.15 248.476 -94.76 251.341 -84.179 L 251.886 -82.189 L 222.24 27.781 L 204.817 8.281 Z M 155.946 27.781 L 126.3 -82.189 L 126.845 -84.179 C 129.71 -94.76 139.38 -102.15 150.354 -102.15 C 161.318 -102.15 170.989 -94.76 173.854 -84.179 L 174.669 -81.17 L 174.717 -80.992 L 174.717 8.281 L 155.946 27.781 Z M 50.46 -87.381 C 54.246 -96.226 63.034 -102.15 72.867 -102.15 C 82.444 -102.15 91.011 -96.515 94.943 -88.041 L 126.168 27.781 L 101.677 27.781 L 50.46 -87.381 Z M 276.508 27.781 L 252.018 27.781 L 283.243 -88.041 C 287.176 -96.515 295.742 -102.15 305.319 -102.15 C 315.152 -102.15 323.94 -96.226 327.726 -87.381 L 276.508 27.781 Z" style="fill: rgb(30, 129, 206);"/>
  <path d="M 325.093 287.67 C 324.999 280.737 327.116 273.952 331.132 268.299 C 384.433 195.475 374.015 94.135 307.007 33.678 C 240.003 -26.779 138.128 -26.755 71.147 33.733 C 4.171 94.217 -6.204 195.565 47.132 268.366 C 51.116 273.967 53.214 280.69 53.124 287.565 L 54.612 331.592 C 54.628 340.076 57.991 348.213 63.971 354.232 C 75.026 365.041 92.112 366.705 105.042 358.232 C 113.983 352.506 119.171 342.432 118.643 331.83 C 118.46 314.631 135.375 349.374 152.558 348.573 C 161.511 348.522 165.171 360.057 171.468 366.42 C 177.769 372.787 181.237 381.42 181.093 390.373 L 182.612 389.928 C 182.331 406.749 194.784 421.077 211.483 423.143 C 220.468 424.026 229.405 421.073 236.096 415.01 C 242.784 408.952 246.604 400.346 246.612 391.319 L 245.093 344.565 C 245.058 333.979 253.308 325.213 263.874 324.604 C 269.534 324.506 274.991 326.717 278.991 330.721 C 282.991 334.725 285.194 340.186 285.093 345.846 L 285.093 368.565 C 285.034 379.166 294.46 363.647 305.042 364.257 C 310.71 364.354 316.171 362.14 320.175 358.128 C 324.175 354.112 325.206 372.952 325.093 367.284 L 325.093 287.67 Z M 189.093 308.565 C 109.562 308.565 45.093 244.092 45.093 164.565 C 45.093 85.034 109.562 20.565 189.093 20.565 C 268.62 20.565 333.093 85.034 333.093 164.565 C 333.093 244.092 268.62 308.565 189.093 308.565 Z M 189.093 308.565" fill="#9bc9ff"/>
  <path d="M 312.019 27.764 C 273.226 -7.447 221.151 -24.259 169.093 -18.373 C 103.769 -11.275 47.198 30.139 20.702 90.264 C -5.798 150.389 1.804 220.084 40.644 273.084 C 43.612 277.323 45.171 282.389 45.093 287.565 L 48.132 326.655 C 48.14 337.284 52.362 347.471 59.874 354.991 C 73.483 368.401 94.581 370.569 110.636 360.206 C 122.038 353.053 123.892 336.129 125.853 338.652 C 127.553 340.839 138.072 346.924 149.079 356.969 C 153.722 361.206 160.319 366.702 164.812 371.1 C 170.085 376.127 173.073 383.088 173.093 390.373 L 173.093 398.284 C 172.866 419.21 188.425 436.956 209.202 439.468 C 210.476 439.585 211.737 439.644 213.003 439.644 C 223.62 439.667 233.812 435.468 241.331 427.968 C 248.851 420.472 253.081 410.292 253.093 399.675 L 253.093 344.565 C 253.093 341.381 254.347 338.33 256.589 336.069 C 258.655 333.983 261.421 332.733 264.355 332.565 C 267.464 332.459 270.483 333.616 272.73 335.764 C 275.507 338.381 277.085 342.022 277.093 345.838 L 277.093 350.714 C 277.105 358.136 280.042 365.257 285.269 370.53 C 290.108 375.366 296.554 378.257 303.386 378.659 C 310.909 379.101 318.276 376.378 323.698 371.147 C 329.679 365.503 333.073 357.651 333.093 349.433 L 333.093 287.67 C 333.011 282.44 334.585 277.319 337.589 273.038 C 393.397 196.866 382.339 90.788 312.019 27.764 Z M 324.675 263.573 C 319.636 270.588 316.98 279.034 317.093 287.67 L 317.093 349.433 C 317.077 353.245 315.503 356.882 312.73 359.499 C 310.468 361.636 307.448 362.784 304.339 362.698 C 301.413 362.53 298.655 361.292 296.589 359.218 C 294.347 356.956 293.089 353.897 293.093 350.714 L 293.093 345.838 C 293.073 337.62 289.675 329.772 283.698 324.131 C 278.265 318.928 270.917 316.209 263.401 316.62 C 256.565 317.018 250.112 319.909 245.269 324.748 C 240.042 330.022 237.105 337.143 237.093 344.565 L 237.093 399.675 C 237.093 406.46 234.226 412.929 229.194 417.48 C 224.163 422.03 217.44 424.241 210.69 423.562 C 198.112 421.866 188.815 410.995 189.093 398.308 L 189.093 390.397 C 189.054 378.748 178.955 362.682 170.534 354.635 C 163.35 347.627 154.678 342.964 146.8 336.45 C 127 320.078 110.912 301.465 112.132 327.03 C 112.502 334.774 108.936 342.174 102.476 346.456 C 92.706 353.069 79.636 351.909 71.186 343.678 C 66.675 339.159 64.14 333.038 64.132 326.655 L 61.093 287.565 C 61.202 278.987 58.562 270.6 53.554 263.635 C 2.659 194.143 12.569 97.412 76.499 39.682 C 140.429 -18.048 237.667 -18.072 301.624 39.631 C 365.585 97.33 375.538 194.053 324.675 263.573 Z" fill="#1e81ce"/>
  <path d="M 189.093 12.565 C 105.144 12.565 37.093 80.616 37.093 164.565 C 37.093 248.51 105.144 316.565 189.093 316.565 C 273.038 316.565 341.093 248.51 341.093 164.565 C 340.999 80.655 272.999 12.659 189.093 12.565 Z M 197.093 300.155 L 181.093 300.155 C 112.397 296.049 57.608 241.256 53.499 172.565 L 53.499 156.565 C 57.608 87.87 112.397 33.08 181.093 28.971 L 197.093 28.971 C 265.784 33.08 320.573 87.87 324.683 156.565 L 324.683 172.565 C 320.573 241.256 265.784 296.049 197.093 300.155 Z" fill="#1e81ce"/>
  <path d="M 277.188 100.621 L 277.188 240.281 L 249.528 240.281 L 249.528 150.131 L 200.868 235.741 C 199.668 237.921 197.995 239.574 195.848 240.701 C 193.701 241.828 191.398 242.391 188.938 242.391 C 186.545 242.391 184.308 241.828 182.228 240.701 C 180.155 239.574 178.521 237.921 177.328 235.741 L 128.448 150.131 L 128.448 240.281 L 100.998 240.281 L 100.998 100.621 C 100.998 97.454 101.931 94.638 103.798 92.171 C 105.665 89.711 108.108 88.058 111.128 87.211 C 112.608 86.858 114.088 86.734 115.568 86.841 C 117.048 86.948 118.471 87.264 119.838 87.791 C 121.211 88.318 122.461 89.058 123.588 90.011 C 124.715 90.958 125.665 92.101 126.438 93.441 L 188.938 202.061 L 251.428 93.441 C 253.048 90.768 255.285 88.868 258.138 87.741 C 260.985 86.614 263.958 86.438 267.058 87.211 C 270.011 88.058 272.438 89.711 274.338 92.171 C 276.238 94.638 277.188 97.454 277.188 100.621 Z" style="fill: rgb(30, 129, 206); white-space: pre;"/>
</svg>