<?xml version="1.0" encoding="utf-8"?>
<svg height="480pt" viewBox="0.043 -0.002 368.011 459.171" width="480pt" xmlns="http://www.w3.org/2000/svg">
  <path d="M 320.051 307.195 C 319.957 300.262 322.074 293.477 326.09 287.824 C 379.391 215 368.973 113.66 301.965 53.203 C 234.961 -7.254 133.086 -7.23 66.105 53.258 C -0.871 113.742 -11.246 215.09 42.09 287.891 C 46.074 293.492 48.172 300.215 48.082 307.09 L 49.57 351.117 C 49.586 359.601 52.949 367.738 58.929 373.757 C 69.984 384.566 87.07 386.23 100 377.757 C 108.941 372.031 114.129 361.957 113.601 351.355 C 113.418 334.156 130.333 368.899 147.516 368.098 C 156.469 368.047 160.129 379.582 166.426 385.945 C 172.727 392.312 176.195 400.945 176.051 409.898 L 177.57 409.453 C 177.289 426.274 189.742 440.602 206.441 442.668 C 215.426 443.551 224.363 440.598 231.054 434.535 C 237.742 428.477 241.562 419.871 241.57 410.844 L 240.051 364.09 C 240.016 353.504 248.266 344.738 258.832 344.129 C 264.492 344.031 269.949 346.242 273.949 350.246 C 277.949 354.25 280.152 359.711 280.051 365.371 L 280.051 388.09 C 279.992 398.691 289.418 383.172 300 383.782 C 305.668 383.879 311.129 381.665 315.133 377.653 C 319.133 373.637 320.164 392.477 320.051 386.809 L 320.051 307.195 Z M 184.051 328.09 C 104.52 328.09 40.051 263.617 40.051 184.09 C 40.051 104.559 104.52 40.09 184.051 40.09 C 263.578 40.09 328.051 104.559 328.051 184.09 C 328.051 263.617 263.578 328.09 184.051 328.09 Z M 184.051 328.09" fill="#9bc9ff"/>
  <path d="M 306.977 47.289 C 268.184 12.078 216.109 -4.734 164.051 1.152 C 98.727 8.25 42.156 49.664 15.66 109.789 C -10.84 169.914 -3.238 239.609 35.602 292.609 C 38.57 296.848 40.129 301.914 40.051 307.09 L 43.09 346.18 C 43.098 356.809 47.32 366.996 54.832 374.516 C 68.441 387.926 89.539 390.094 105.594 379.731 C 116.996 372.578 118.85 355.654 120.811 358.177 C 122.511 360.364 133.03 366.449 144.037 376.494 C 148.68 380.731 155.277 386.227 159.77 390.625 C 165.043 395.652 168.031 402.613 168.051 409.898 L 168.051 417.809 C 167.824 438.735 183.383 456.481 204.16 458.993 C 205.434 459.11 206.695 459.169 207.961 459.169 C 218.578 459.192 228.77 454.993 236.289 447.493 C 243.809 439.997 248.039 429.817 248.051 419.2 L 248.051 364.09 C 248.051 360.906 249.305 357.855 251.547 355.594 C 253.613 353.508 256.379 352.258 259.313 352.09 C 262.422 351.984 265.441 353.141 267.688 355.289 C 270.465 357.906 272.043 361.547 272.051 365.363 L 272.051 370.239 C 272.063 377.661 275 384.782 280.227 390.055 C 285.066 394.891 291.512 397.782 298.344 398.184 C 305.867 398.626 313.234 395.903 318.656 390.672 C 324.637 385.028 328.031 377.176 328.051 368.958 L 328.051 307.195 C 327.969 301.965 329.543 296.844 332.547 292.563 C 388.355 216.391 377.297 110.313 306.977 47.289 Z M 319.633 283.098 C 314.594 290.113 311.938 298.559 312.051 307.195 L 312.051 368.958 C 312.035 372.77 310.461 376.407 307.688 379.024 C 305.426 381.161 302.406 382.309 299.297 382.223 C 296.371 382.055 293.613 380.817 291.547 378.743 C 289.305 376.481 288.047 373.422 288.051 370.239 L 288.051 365.363 C 288.031 357.145 284.633 349.297 278.656 343.656 C 273.223 338.453 265.875 335.734 258.359 336.145 C 251.523 336.543 245.07 339.434 240.227 344.273 C 235 349.547 232.063 356.668 232.051 364.09 L 232.051 419.2 C 232.051 425.985 229.184 432.454 224.152 437.005 C 219.121 441.555 212.398 443.766 205.648 443.087 C 193.07 441.391 183.773 430.52 184.051 417.833 L 184.051 409.922 C 184.012 398.273 173.913 382.207 165.492 374.16 C 158.308 367.152 149.636 362.489 141.758 355.975 C 121.958 339.603 105.87 320.99 107.09 346.555 C 107.46 354.299 103.894 361.699 97.434 365.981 C 87.664 372.594 74.594 371.434 66.144 363.203 C 61.633 358.684 59.098 352.563 59.09 346.18 L 56.051 307.09 C 56.16 298.512 53.52 290.125 48.512 283.16 C -2.383 213.668 7.527 116.937 71.457 59.207 C 135.387 1.477 232.625 1.453 296.582 59.156 C 360.543 116.855 370.496 213.578 319.633 283.098 Z" fill="#1e81ce"/>
  <path d="M 184.051 32.09 C 100.102 32.09 32.051 100.141 32.051 184.09 C 32.051 268.035 100.102 336.09 184.051 336.09 C 267.996 336.09 336.051 268.035 336.051 184.09 C 335.957 100.18 267.957 32.184 184.051 32.09 Z M 192.051 319.68 L 176.051 319.68 C 107.355 315.574 52.566 260.781 48.457 192.09 L 48.457 176.09 C 52.566 107.395 107.355 52.605 176.051 48.496 L 192.051 48.496 C 260.742 52.605 315.531 107.395 319.641 176.09 L 319.641 192.09 C 315.531 260.781 260.742 315.574 192.051 319.68 Z" fill="#1e81ce"/>
  <path d="M 272.146 120.146 L 272.146 259.806 L 244.486 259.806 L 244.486 169.656 L 195.826 255.266 C 194.626 257.446 192.953 259.099 190.806 260.226 C 188.659 261.353 186.356 261.916 183.896 261.916 C 181.503 261.916 179.266 261.353 177.186 260.226 C 175.113 259.099 173.479 257.446 172.286 255.266 L 123.406 169.656 L 123.406 259.806 L 95.956 259.806 L 95.956 120.146 C 95.956 116.979 96.889 114.163 98.756 111.696 C 100.623 109.236 103.066 107.583 106.086 106.736 C 107.566 106.383 109.046 106.259 110.526 106.366 C 112.006 106.473 113.429 106.789 114.796 107.316 C 116.169 107.843 117.419 108.583 118.546 109.536 C 119.673 110.483 120.623 111.626 121.396 112.966 L 183.896 221.586 L 246.386 112.966 C 248.006 110.293 250.243 108.393 253.096 107.266 C 255.943 106.139 258.916 105.963 262.016 106.736 C 264.969 107.583 267.396 109.236 269.296 111.696 C 271.196 114.163 272.146 116.979 272.146 120.146 Z" style="fill: rgb(30, 129, 206); white-space: pre;"/>
</svg>